# xmcd
#
# Track frame offsets: 
#        150
#        6602
#        19320
#        34061
#        37796
#        55713
#        68708
#        89910
#
# Disc length: 1955 seconds
#
# Revision: 1
# Processed by: cddbd v1.5.2PL0 Copyright (c) Steve Scherf et al.
# Submitted via: ExactAudioCopy v1.2
#
DISCID=6507a108
DTITLE=VADER - The Art Of War
DYEAR=2005
DGENRE=Heavy Metal
TTITLE0=Para Bellum
TTITLE1=This Is The War
TTITLE2=Lead Us!!!
TTITLE3=Banners On The Wind
TTITLE4=What Colour Is Your Blood?
TTITLE5=Die!!!(Gin Psie)
TTITLE6=Death In Silence
TTITLE7=Video clip "This Is The War"
EXTD=YEAR: 2005
EXTT0=
EXTT1=
EXTT2=
EXTT3=
EXTT4=
EXTT5=
EXTT6=
EXTT7=
PLAYORDER=
